# MagicaVoxel @ Ephtracy

# group
o 

# material
mtllib Ak47.mtl
usemtl palette

# normals
vn -1 0 0
vn 1 0 0
vn 0 0 1
vn 0 0 -1
vn 0 -1 0
vn 0 1 0

# texcoords
vt 0.970703 0.5
vt 0.974609 0.5

# verts
v 0 0 1.3
v 0 0 0.8
v 0 0 -0.6
v 0 0 -1.1
v 0 0.1 1.3
v 0 0.1 1.2
v 0 0.1 0.8
v 0 0.1 0.7
v 0 0.2 1.2
v 0 0.2 1.1
v 0 0.2 0.7
v 0 0.2 0.6
v 0 0.3 1.1
v 0 0.3 1
v 0 0.3 0.6
v 0 0.3 0.5
v 0 0.4 1
v 0 0.4 0.9
v 0 0.4 0.5
v 0 0.4 0.4
v 0 0.5 0.9
v 0 0.5 0.8
v 0 0.5 0.4
v 0 0.5 0.3
v 0 0.6 0.8
v 0 0.6 0.7
v 0 0.6 0.3
v 0 0.6 0.2
v 0 0.7 0.7
v 0 0.7 0.6
v 0 0.7 0.2
v 0 0.7 0.0999999
v 0 0.8 0.6
v 0 0.8 0.5
v 0 0.8 0.0999999
v 0 0.8 0
v 0 0.9 0.5
v 0 0.9 0.4
v 0 0.9 0
v 0 0.9 -0.0999999
v 0 1.1 3.2
v 0 1.1 2.3
v 0 1.1 0.4
v 0 1.1 -0.0999999
v 0 1.1 -0.6
v 0 1.1 -1.1
v 0 1.1 -1.3
v 0 1.1 -3.2
v 0 1.6 1.1
v 0 1.6 0.4
v 0 1.7 -1.3
v 0 1.7 -2.2
v 0 1.8 3.2
v 0 1.8 2.3
v 0 1.9 2.3
v 0 1.9 1.1
v 0 2 1.1
v 0 2 -1.3
v 0 2 -2.2
v 0 2 -3.2
v 0.1 1.1 4.8
v 0.1 1.1 3.2
v 0.1 1.3 4.8
v 0.1 1.3 4.5
v 0.1 1.3 4.3
v 0.1 1.3 3.9
v 0.1 1.5 3.9
v 0.1 1.5 3.2
v 0.1 1.9 4.5
v 0.1 1.9 4.3
v 0.3 0 1.3
v 0.3 0 0.8
v 0.3 0 -0.6
v 0.3 0 -1.1
v 0.3 0.1 1.3
v 0.3 0.1 1.2
v 0.3 0.1 0.8
v 0.3 0.1 0.7
v 0.3 0.2 1.2
v 0.3 0.2 1.1
v 0.3 0.2 0.7
v 0.3 0.2 0.6
v 0.3 0.3 1.1
v 0.3 0.3 1
v 0.3 0.3 0.6
v 0.3 0.3 0.5
v 0.3 0.4 1
v 0.3 0.4 0.9
v 0.3 0.4 0.5
v 0.3 0.4 0.4
v 0.3 0.5 0.9
v 0.3 0.5 0.8
v 0.3 0.5 0.4
v 0.3 0.5 0.3
v 0.3 0.6 0.8
v 0.3 0.6 0.7
v 0.3 0.6 0.3
v 0.3 0.6 0.2
v 0.3 0.7 0.7
v 0.3 0.7 0.6
v 0.3 0.7 0.2
v 0.3 0.7 0.0999999
v 0.3 0.8 0.6
v 0.3 0.8 0.5
v 0.3 0.8 0.0999999
v 0.3 0.8 0
v 0.3 0.9 0.5
v 0.3 0.9 0.4
v 0.3 0.9 0
v 0.3 0.9 -0.0999999
v 0.3 1.1 4.8
v 0.3 1.1 2.3
v 0.3 1.1 0.4
v 0.3 1.1 -0.0999999
v 0.3 1.1 -0.6
v 0.3 1.1 -1.1
v 0.3 1.1 -1.3
v 0.3 1.1 -3.2
v 0.3 1.3 4.8
v 0.3 1.3 4.5
v 0.3 1.3 4.3
v 0.3 1.3 3.9
v 0.3 1.5 3.9
v 0.3 1.5 3.2
v 0.3 1.6 1.1
v 0.3 1.6 0.4
v 0.3 1.7 -1.3
v 0.3 1.7 -2.2
v 0.3 1.8 3.2
v 0.3 1.8 2.3
v 0.3 1.9 4.5
v 0.3 1.9 4.3
v 0.3 1.9 2.3
v 0.3 1.9 1.1
v 0.3 2 1.1
v 0.3 2 -1.3
v 0.3 2 -2.2
v 0.3 2 -3.2
v 0.1 1.1 4.8
v 0.1 1.3 4.8
v 0.3 1.1 4.8
v 0.3 1.3 4.8
v 0.1 1.3 4.5
v 0.1 1.9 4.5
v 0.3 1.3 4.5
v 0.3 1.9 4.5
v 0.1 1.3 3.9
v 0.1 1.5 3.9
v 0.3 1.3 3.9
v 0.3 1.5 3.9
v 0 1.1 3.2
v 0 1.8 3.2
v 0.1 1.1 3.2
v 0.1 1.5 3.2
v 0.3 1.5 3.2
v 0.3 1.8 3.2
v 0 1.8 2.3
v 0 1.9 2.3
v 0.3 1.8 2.3
v 0.3 1.9 2.3
v 0 0 1.3
v 0 0.1 1.3
v 0.3 0 1.3
v 0.3 0.1 1.3
v 0 0.1 1.2
v 0 0.2 1.2
v 0.3 0.1 1.2
v 0.3 0.2 1.2
v 0 0.2 1.1
v 0 0.3 1.1
v 0 1.9 1.1
v 0 2 1.1
v 0.3 0.2 1.1
v 0.3 0.3 1.1
v 0.3 1.9 1.1
v 0.3 2 1.1
v 0 0.3 1
v 0 0.4 1
v 0.3 0.3 1
v 0.3 0.4 1
v 0 0.4 0.9
v 0 0.5 0.9
v 0.3 0.4 0.9
v 0.3 0.5 0.9
v 0 0.5 0.8
v 0 0.6 0.8
v 0.3 0.5 0.8
v 0.3 0.6 0.8
v 0 0.6 0.7
v 0 0.7 0.7
v 0.3 0.6 0.7
v 0.3 0.7 0.7
v 0 0.7 0.6
v 0 0.8 0.6
v 0.3 0.7 0.6
v 0.3 0.8 0.6
v 0 0.8 0.5
v 0 0.9 0.5
v 0.3 0.8 0.5
v 0.3 0.9 0.5
v 0 0.9 0.4
v 0 1.1 0.4
v 0.3 0.9 0.4
v 0.3 1.1 0.4
v 0 0 -0.6
v 0 1.1 -0.6
v 0.3 0 -0.6
v 0.3 1.1 -0.6
v 0 1.7 -2.2
v 0 2 -2.2
v 0.3 1.7 -2.2
v 0.3 2 -2.2
v 0.1 1.3 4.3
v 0.1 1.9 4.3
v 0.3 1.3 4.3
v 0.3 1.9 4.3
v 0 0 0.8
v 0 0.1 0.8
v 0.3 0 0.8
v 0.3 0.1 0.8
v 0 0.1 0.7
v 0 0.2 0.7
v 0.3 0.1 0.7
v 0.3 0.2 0.7
v 0 0.2 0.6
v 0 0.3 0.6
v 0.3 0.2 0.6
v 0.3 0.3 0.6
v 0 0.3 0.5
v 0 0.4 0.5
v 0.3 0.3 0.5
v 0.3 0.4 0.5
v 0 0.4 0.4
v 0 0.5 0.4
v 0.3 0.4 0.4
v 0.3 0.5 0.4
v 0 0.5 0.3
v 0 0.6 0.3
v 0.3 0.5 0.3
v 0.3 0.6 0.3
v 0 0.6 0.2
v 0 0.7 0.2
v 0.3 0.6 0.2
v 0.3 0.7 0.2
v 0 0.7 0.0999999
v 0 0.8 0.0999999
v 0.3 0.7 0.0999999
v 0.3 0.8 0.0999999
v 0 0.8 0
v 0 0.9 0
v 0.3 0.8 0
v 0.3 0.9 0
v 0 0.9 -0.0999999
v 0 1.1 -0.0999999
v 0.3 0.9 -0.0999999
v 0.3 1.1 -0.0999999
v 0 0 -1.1
v 0 1.1 -1.1
v 0.3 0 -1.1
v 0.3 1.1 -1.1
v 0 1.7 -1.3
v 0 2 -1.3
v 0.3 1.7 -1.3
v 0.3 2 -1.3
v 0 1.1 -3.2
v 0 2 -3.2
v 0.3 1.1 -3.2
v 0.3 2 -3.2
v 0 0 1.3
v 0.3 0 1.3
v 0 0 0.8
v 0.3 0 0.8
v 0 0 -0.6
v 0.3 0 -0.6
v 0 0 -1.1
v 0.3 0 -1.1
v 0 0.1 0.8
v 0.3 0.1 0.8
v 0 0.1 0.7
v 0.3 0.1 0.7
v 0 0.2 0.7
v 0.3 0.2 0.7
v 0 0.2 0.6
v 0.3 0.2 0.6
v 0 0.3 0.6
v 0.3 0.3 0.6
v 0 0.3 0.5
v 0.3 0.3 0.5
v 0 0.4 0.5
v 0.3 0.4 0.5
v 0 0.4 0.4
v 0.3 0.4 0.4
v 0 0.5 0.4
v 0.3 0.5 0.4
v 0 0.5 0.3
v 0.3 0.5 0.3
v 0 0.6 0.3
v 0.3 0.6 0.3
v 0 0.6 0.2
v 0.3 0.6 0.2
v 0 0.7 0.2
v 0.3 0.7 0.2
v 0 0.7 0.0999999
v 0.3 0.7 0.0999999
v 0 0.8 0.0999999
v 0.3 0.8 0.0999999
v 0 0.8 0
v 0.3 0.8 0
v 0 0.9 0
v 0.3 0.9 0
v 0 0.9 -0.0999999
v 0.3 0.9 -0.0999999
v 0.1 1.1 4.8
v 0.3 1.1 4.8
v 0 1.1 3.2
v 0.1 1.1 3.2
v 0 1.1 2.3
v 0.3 1.1 2.3
v 0 1.1 0.4
v 0.3 1.1 0.4
v 0 1.1 -0.0999999
v 0.3 1.1 -0.0999999
v 0 1.1 -0.6
v 0.3 1.1 -0.6
v 0 1.1 -1.1
v 0.3 1.1 -1.1
v 0 1.1 -1.3
v 0.3 1.1 -1.3
v 0.1 1.1 -2.2
v 0.2 1.1 -2.2
v 0.1 1.1 -2.8
v 0.2 1.1 -2.8
v 0 1.1 -3.2
v 0.3 1.1 -3.2
v 0 0.1 1.3
v 0.3 0.1 1.3
v 0 0.1 1.2
v 0.3 0.1 1.2
v 0 0.2 1.2
v 0.3 0.2 1.2
v 0 0.2 1.1
v 0.3 0.2 1.1
v 0 0.3 1.1
v 0.3 0.3 1.1
v 0 0.3 1
v 0.3 0.3 1
v 0 0.4 1
v 0.3 0.4 1
v 0 0.4 0.9
v 0.3 0.4 0.9
v 0 0.5 0.9
v 0.3 0.5 0.9
v 0 0.5 0.8
v 0.3 0.5 0.8
v 0 0.6 0.8
v 0.3 0.6 0.8
v 0 0.6 0.7
v 0.3 0.6 0.7
v 0 0.7 0.7
v 0.3 0.7 0.7
v 0 0.7 0.6
v 0.3 0.7 0.6
v 0 0.8 0.6
v 0.3 0.8 0.6
v 0 0.8 0.5
v 0.3 0.8 0.5
v 0 0.9 0.5
v 0.3 0.9 0.5
v 0 0.9 0.4
v 0.3 0.9 0.4
v 0.1 1.3 4.8
v 0.3 1.3 4.8
v 0.1 1.3 4.5
v 0.3 1.3 4.5
v 0.1 1.3 4.3
v 0.3 1.3 4.3
v 0.1 1.3 3.9
v 0.3 1.3 3.9
v 0.1 1.5 3.9
v 0.3 1.5 3.9
v 0.1 1.5 3.2
v 0.3 1.5 3.2
v 0 1.7 -1.3
v 0.3 1.7 -1.3
v 0 1.7 -2.2
v 0.3 1.7 -2.2
v 0 1.8 3.2
v 0.3 1.8 3.2
v 0 1.8 2.3
v 0.3 1.8 2.3
v 0.1 1.9 4.5
v 0.3 1.9 4.5
v 0.1 1.9 4.3
v 0.3 1.9 4.3
v 0 1.9 2.3
v 0.3 1.9 2.3
v 0 1.9 1.1
v 0.3 1.9 1.1
v 0 2 1.1
v 0.3 2 1.1
v 0 2 -1.3
v 0.3 2 -1.3
v 0 2 -2.2
v 0.3 2 -2.2
v 0 2 -3.2
v 0.3 2 -3.2

# faces
f 5/1/1 2/1/1 1/1/1
f 6/1/1 2/1/1 5/1/1
f 7/1/1 2/1/1 6/1/1
f 9/1/1 8/1/1 7/1/1
f 9/1/1 7/1/1 6/1/1
f 10/1/1 8/1/1 9/1/1
f 11/1/1 8/1/1 10/1/1
f 13/1/1 12/1/1 11/1/1
f 13/1/1 11/1/1 10/1/1
f 14/1/1 12/1/1 13/1/1
f 15/1/1 12/1/1 14/1/1
f 17/1/1 16/1/1 15/1/1
f 17/1/1 15/1/1 14/1/1
f 18/1/1 16/1/1 17/1/1
f 19/1/1 16/1/1 18/1/1
f 21/1/1 20/1/1 19/1/1
f 21/1/1 19/1/1 18/1/1
f 22/1/1 20/1/1 21/1/1
f 23/1/1 20/1/1 22/1/1
f 25/1/1 24/1/1 23/1/1
f 25/1/1 23/1/1 22/1/1
f 26/1/1 24/1/1 25/1/1
f 27/1/1 24/1/1 26/1/1
f 29/1/1 28/1/1 27/1/1
f 29/1/1 27/1/1 26/1/1
f 30/1/1 28/1/1 29/1/1
f 31/1/1 28/1/1 30/1/1
f 33/1/1 32/1/1 31/1/1
f 33/1/1 31/1/1 30/1/1
f 34/1/1 32/1/1 33/1/1
f 35/1/1 32/1/1 34/1/1
f 37/1/1 36/1/1 35/1/1
f 37/1/1 35/1/1 34/1/1
f 38/1/1 36/1/1 37/1/1
f 39/1/1 36/1/1 38/1/1
f 43/1/1 40/1/1 39/1/1
f 43/1/1 39/1/1 38/1/1
f 44/1/1 40/1/1 43/1/1
f 45/1/1 4/1/1 3/1/1
f 46/1/1 4/1/1 45/1/1
f 49/1/1 43/1/1 42/1/1
f 50/2/1 44/2/1 43/2/1
f 50/1/1 43/1/1 49/1/1
f 50/2/1 45/2/1 44/2/1
f 50/2/1 47/2/1 46/2/1
f 50/2/1 46/2/1 45/2/1
f 51/1/1 48/1/1 47/1/1
f 51/2/1 47/2/1 50/2/1
f 51/2/1 50/2/1 49/2/1
f 52/1/1 48/1/1 51/1/1
f 53/2/1 42/2/1 41/2/1
f 54/1/1 49/1/1 42/1/1
f 54/2/1 42/2/1 53/2/1
f 55/1/1 49/1/1 54/1/1
f 56/2/1 51/2/1 49/2/1
f 56/1/1 49/1/1 55/1/1
f 57/2/1 51/2/1 56/2/1
f 58/2/1 51/2/1 57/2/1
f 59/1/1 48/1/1 52/1/1
f 60/1/1 48/1/1 59/1/1
f 63/2/1 62/2/1 61/2/1
f 64/2/1 62/2/1 63/2/1
f 65/2/1 62/2/1 64/2/1
f 66/2/1 62/2/1 65/2/1
f 67/2/1 62/2/1 66/2/1
f 68/2/1 62/2/1 67/2/1
f 69/2/1 65/2/1 64/2/1
f 70/2/1 65/2/1 69/2/1
f 71/1/2 72/1/2 75/1/2
f 75/1/2 72/1/2 76/1/2
f 76/1/2 72/1/2 77/1/2
f 77/1/2 78/1/2 79/1/2
f 76/1/2 77/1/2 79/1/2
f 79/1/2 78/1/2 80/1/2
f 80/1/2 78/1/2 81/1/2
f 81/1/2 82/1/2 83/1/2
f 80/1/2 81/1/2 83/1/2
f 83/1/2 82/1/2 84/1/2
f 84/1/2 82/1/2 85/1/2
f 85/1/2 86/1/2 87/1/2
f 84/1/2 85/1/2 87/1/2
f 87/1/2 86/1/2 88/1/2
f 88/1/2 86/1/2 89/1/2
f 89/1/2 90/1/2 91/1/2
f 88/1/2 89/1/2 91/1/2
f 91/1/2 90/1/2 92/1/2
f 92/1/2 90/1/2 93/1/2
f 93/1/2 94/1/2 95/1/2
f 92/1/2 93/1/2 95/1/2
f 95/1/2 94/1/2 96/1/2
f 96/1/2 94/1/2 97/1/2
f 97/1/2 98/1/2 99/1/2
f 96/1/2 97/1/2 99/1/2
f 99/1/2 98/1/2 100/1/2
f 100/1/2 98/1/2 101/1/2
f 101/1/2 102/1/2 103/1/2
f 100/1/2 101/1/2 103/1/2
f 103/1/2 102/1/2 104/1/2
f 104/1/2 102/1/2 105/1/2
f 105/1/2 106/1/2 107/1/2
f 104/1/2 105/1/2 107/1/2
f 107/1/2 106/1/2 108/1/2
f 108/1/2 106/1/2 109/1/2
f 109/1/2 110/1/2 113/1/2
f 108/1/2 109/1/2 113/1/2
f 113/1/2 110/1/2 114/1/2
f 73/1/2 74/1/2 115/1/2
f 115/1/2 74/1/2 116/1/2
f 111/2/2 112/2/2 119/2/2
f 119/2/2 112/2/2 120/2/2
f 120/2/2 112/2/2 121/2/2
f 121/2/2 112/2/2 122/2/2
f 122/2/2 112/2/2 123/2/2
f 123/2/2 112/2/2 124/2/2
f 112/1/2 113/1/2 125/1/2
f 113/2/2 114/2/2 126/2/2
f 125/1/2 113/1/2 126/1/2
f 114/2/2 115/2/2 126/2/2
f 115/2/2 116/2/2 126/2/2
f 116/2/2 117/2/2 126/2/2
f 117/1/2 118/1/2 127/1/2
f 126/2/2 117/2/2 127/2/2
f 125/2/2 126/2/2 127/2/2
f 127/1/2 118/1/2 128/1/2
f 124/2/2 112/2/2 129/2/2
f 112/1/2 125/1/2 130/1/2
f 129/2/2 112/2/2 130/2/2
f 120/2/2 121/2/2 131/2/2
f 131/2/2 121/2/2 132/2/2
f 130/1/2 125/1/2 133/1/2
f 125/2/2 127/2/2 134/2/2
f 133/1/2 125/1/2 134/1/2
f 134/2/2 127/2/2 135/2/2
f 135/2/2 127/2/2 136/2/2
f 128/1/2 118/1/2 137/1/2
f 137/1/2 118/1/2 138/1/2
f 141/2/3 140/2/3 139/2/3
f 142/2/3 140/2/3 141/2/3
f 145/2/3 144/2/3 143/2/3
f 146/2/3 144/2/3 145/2/3
f 149/2/3 148/2/3 147/2/3
f 150/2/3 148/2/3 149/2/3
f 153/2/3 152/2/3 151/2/3
f 154/2/3 152/2/3 153/2/3
f 155/2/3 152/2/3 154/2/3
f 156/2/3 152/2/3 155/2/3
f 159/1/3 158/1/3 157/1/3
f 160/1/3 158/1/3 159/1/3
f 163/1/3 162/1/3 161/1/3
f 164/1/3 162/1/3 163/1/3
f 167/1/3 166/1/3 165/1/3
f 168/1/3 166/1/3 167/1/3
f 173/1/3 170/1/3 169/1/3
f 174/1/3 170/1/3 173/1/3
f 175/2/3 172/2/3 171/2/3
f 176/2/3 172/2/3 175/2/3
f 179/1/3 178/1/3 177/1/3
f 180/1/3 178/1/3 179/1/3
f 183/1/3 182/1/3 181/1/3
f 184/1/3 182/1/3 183/1/3
f 187/1/3 186/1/3 185/1/3
f 188/1/3 186/1/3 187/1/3
f 191/1/3 190/1/3 189/1/3
f 192/1/3 190/1/3 191/1/3
f 195/1/3 194/1/3 193/1/3
f 196/1/3 194/1/3 195/1/3
f 199/1/3 198/1/3 197/1/3
f 200/1/3 198/1/3 199/1/3
f 203/1/3 202/1/3 201/1/3
f 204/1/3 202/1/3 203/1/3
f 207/1/3 206/1/3 205/1/3
f 208/1/3 206/1/3 207/1/3
f 211/1/3 210/1/3 209/1/3
f 212/1/3 210/1/3 211/1/3
f 213/2/4 214/2/4 215/2/4
f 215/2/4 214/2/4 216/2/4
f 217/1/4 218/1/4 219/1/4
f 219/1/4 218/1/4 220/1/4
f 221/1/4 222/1/4 223/1/4
f 223/1/4 222/1/4 224/1/4
f 225/1/4 226/1/4 227/1/4
f 227/1/4 226/1/4 228/1/4
f 229/1/4 230/1/4 231/1/4
f 231/1/4 230/1/4 232/1/4
f 233/1/4 234/1/4 235/1/4
f 235/1/4 234/1/4 236/1/4
f 237/1/4 238/1/4 239/1/4
f 239/1/4 238/1/4 240/1/4
f 241/1/4 242/1/4 243/1/4
f 243/1/4 242/1/4 244/1/4
f 245/1/4 246/1/4 247/1/4
f 247/1/4 246/1/4 248/1/4
f 249/1/4 250/1/4 251/1/4
f 251/1/4 250/1/4 252/1/4
f 253/1/4 254/1/4 255/1/4
f 255/1/4 254/1/4 256/1/4
f 257/1/4 258/1/4 259/1/4
f 259/1/4 258/1/4 260/1/4
f 261/2/4 262/2/4 263/2/4
f 263/2/4 262/2/4 264/2/4
f 265/1/4 266/1/4 267/1/4
f 267/1/4 266/1/4 268/1/4
f 271/1/5 270/1/5 269/1/5
f 272/1/5 270/1/5 271/1/5
f 275/1/5 274/1/5 273/1/5
f 276/1/5 274/1/5 275/1/5
f 279/1/5 278/1/5 277/1/5
f 280/1/5 278/1/5 279/1/5
f 283/1/5 282/1/5 281/1/5
f 284/1/5 282/1/5 283/1/5
f 287/1/5 286/1/5 285/1/5
f 288/1/5 286/1/5 287/1/5
f 291/1/5 290/1/5 289/1/5
f 292/1/5 290/1/5 291/1/5
f 295/1/5 294/1/5 293/1/5
f 296/1/5 294/1/5 295/1/5
f 299/1/5 298/1/5 297/1/5
f 300/1/5 298/1/5 299/1/5
f 303/1/5 302/1/5 301/1/5
f 304/1/5 302/1/5 303/1/5
f 307/1/5 306/1/5 305/1/5
f 308/1/5 306/1/5 307/1/5
f 311/1/5 310/1/5 309/1/5
f 312/1/5 310/1/5 311/1/5
f 316/2/5 314/2/5 313/2/5
f 317/2/5 316/2/5 315/2/5
f 318/2/5 314/2/5 316/2/5
f 318/2/5 316/2/5 317/2/5
f 319/1/5 318/1/5 317/1/5
f 320/1/5 318/1/5 319/1/5
f 323/2/5 322/2/5 321/2/5
f 324/2/5 322/2/5 323/2/5
f 327/2/5 326/2/5 325/2/5
f 328/2/5 326/2/5 327/2/5
f 329/1/5 328/1/5 327/1/5
f 330/1/5 328/1/5 329/1/5
f 331/1/5 329/1/5 327/1/5
f 331/2/5 330/2/5 329/2/5
f 332/1/5 328/1/5 330/1/5
f 332/2/5 330/2/5 331/2/5
f 333/1/5 331/1/5 327/1/5
f 333/1/5 332/1/5 331/1/5
f 334/1/5 328/1/5 332/1/5
f 334/1/5 332/1/5 333/1/5
f 335/1/6 336/1/6 337/1/6
f 337/1/6 336/1/6 338/1/6
f 339/1/6 340/1/6 341/1/6
f 341/1/6 340/1/6 342/1/6
f 343/1/6 344/1/6 345/1/6
f 345/1/6 344/1/6 346/1/6
f 347/1/6 348/1/6 349/1/6
f 349/1/6 348/1/6 350/1/6
f 351/1/6 352/1/6 353/1/6
f 353/1/6 352/1/6 354/1/6
f 355/1/6 356/1/6 357/1/6
f 357/1/6 356/1/6 358/1/6
f 359/1/6 360/1/6 361/1/6
f 361/1/6 360/1/6 362/1/6
f 363/1/6 364/1/6 365/1/6
f 365/1/6 364/1/6 366/1/6
f 367/1/6 368/1/6 369/1/6
f 369/1/6 368/1/6 370/1/6
f 371/2/6 372/2/6 373/2/6
f 373/2/6 372/2/6 374/2/6
f 375/2/6 376/2/6 377/2/6
f 377/2/6 376/2/6 378/2/6
f 379/2/6 380/2/6 381/2/6
f 381/2/6 380/2/6 382/2/6
f 383/1/6 384/1/6 385/1/6
f 385/1/6 384/1/6 386/1/6
f 387/2/6 388/2/6 389/2/6
f 389/2/6 388/2/6 390/2/6
f 391/2/6 392/2/6 393/2/6
f 393/2/6 392/2/6 394/2/6
f 395/1/6 396/1/6 397/1/6
f 397/1/6 396/1/6 398/1/6
f 399/2/6 400/2/6 401/2/6
f 401/2/6 400/2/6 402/2/6
f 403/1/6 404/1/6 405/1/6
f 405/1/6 404/1/6 406/1/6
